<svg xmlns="http://www.w3.org/2000/svg" width="44" height="35.031" viewBox="0 0 44 35.031">
  <metadata><?xpacket begin="﻿" id="W5M0MpCehiHzreSzNTczkc9d"?>
<x:xmpmeta xmlns:x="adobe:ns:meta/" x:xmptk="Adobe XMP Core 5.6-c138 79.159824, 2016/09/14-01:09:01        ">
   <rdf:RDF xmlns:rdf="http://www.w3.org/1999/02/22-rdf-syntax-ns#">
      <rdf:Description rdf:about=""/>
   </rdf:RDF>
</x:xmpmeta>
                                                                                                    
                                                                                                    
                                                                                                    
                                                                                                    
                                                                                                    
                                                                                                    
                                                                                                    
                                                                                                    
                                                                                                    
                                                                                                    
                                                                                                    
                                                                                                    
                                                                                                    
                                                                                                    
                                                                                                    
                                                                                                    
                                                                                                    
                                                                                                    
                                                                                                    
                                                                                                    
                           
<?xpacket end="w"?></metadata>
<defs>
    <style>
      .cls-1 {
        fill: #fff;
        fill-rule: evenodd;
      }
    </style>
  </defs>
  <path id="_3" data-name="3" class="cls-1" d="M1064.4,859.027h-2.98l-0.31-7.452a0.634,0.634,0,0,0-.65-0.619h-0.71l-0.31-.961h4.94a0.612,0.612,0,0,1,.62.6v7.84A0.6,0.6,0,0,1,1064.4,859.027Zm-38.15-8.071h-0.71a0.634,0.634,0,0,0-.65.619l-0.31,7.452h-2.98a0.6,0.6,0,0,1-.6-0.592V850.6a0.612,0.612,0,0,1,.62-0.6h4.94ZM1025,880l7,1-0.01,2.192a0.816,0.816,0,0,1-.82.808h-6.34a0.81,0.81,0,0,1-.82-0.808L1024,881A0.97,0.97,0,0,1,1025,880Zm37,1-0.01,2.192a0.81,0.81,0,0,1-.82.808h-6.34a0.816,0.816,0,0,1-.82-0.808L1054,881l7-1A0.97,0.97,0,0,1,1062,881Zm-34.83-30.061c0.32-1.069.89-1.973,1.99-1.973h27.68c1.1,0,1.67.9,1.99,1.973L1060,858v5a2.012,2.012,0,0,1,2,2v8h-38v-8a2.012,2.012,0,0,1,2-2v-5ZM1058,851a1.192,1.192,0,0,0-1-1h-28a1.192,1.192,0,0,0-1,1l-1,7a1.192,1.192,0,0,0,1,1h30a1.192,1.192,0,0,0,1-1Zm-4.01,18.612a0.39,0.39,0,0,0,.37.4h5.28a0.382,0.382,0,0,0,.36-0.4v-1.2a0.381,0.381,0,0,0-.36-0.4h-5.28a0.389,0.389,0,0,0-.37.4v1.2ZM1035,871h16v-8a2.013,2.013,0,0,0-2-2h-12a2.013,2.013,0,0,0-2,2v8Zm-9-2.59v1.2a0.382,0.382,0,0,0,.36.4h5.28a0.39,0.39,0,0,0,.37-0.4v-1.2a0.389,0.389,0,0,0-.37-0.4h-5.28A0.381,0.381,0,0,0,1026,868.41Zm19,5.59h18v4l-12,2h-16l-12-2v-4h22Zm-13-23h3l-1,7h-3Zm5,0h1l-1,7h-1Z" transform="translate(-1021 -848.969)"/>
</svg>
